0
SECTION
2
HEADER
9
$INSUNITS
70
4
9
$ACADVER
1
AC1014
9
$HANDSEED
5
FFFF
0
ENDSEC
0
SECTION
2
TABLES
0
TABLE
2
VPORT
5
8
100
AcDbSymbolTable
0
ENDTAB
0
TABLE
2
LTYPE
5
5
100
AcDbSymbolTable
0
LTYPE
5
14
100
AcDbSymbolTableRecord
100
AcDbLinetypeTableRecord
2
BYBLOCK
70
0
0
LTYPE
5
15
100
AcDbSymbolTableRecord
100
AcDbLinetypeTableRecord
2
BYLAYER
70
0
0
ENDTAB
0
TABLE
2
LAYER
5
2
100
AcDbSymbolTable
70
2
0
LAYER
5
50
100
AcDbSymbolTableRecord
100
AcDbLayerTableRecord
2
0
70
0
6
CONTINUOUS
0
ENDTAB
0
TABLE
2
STYLE
5
3
100
AcDbSymbolTable
70
1
0
STYLE
5
11
100
AcDbSymbolTableRecord
100
AcDbTextStyleTableRecord
2
STANDARD
70
0
0
ENDTAB
0
TABLE
2
VIEW
5
6
100
AcDbSymbolTable
70
0
0
ENDTAB
0
TABLE
2
UCS
5
7
100
AcDbSymbolTable
70
0
0
ENDTAB
0
TABLE
2
APPID
5
9
100
AcDbSymbolTable
70
2
0
APPID
5
12
100
AcDbSymbolTableRecord
100
AcDbRegAppTableRecord
2
ACAD
70
0
0
ENDTAB
0
TABLE
2
DIMSTYLE
5
A
100
AcDbSymbolTable
70
1
0
ENDTAB
0
TABLE
2
BLOCK_RECORD
5
1
100
AcDbSymbolTable
70
1
0
BLOCK_RECORD
5
1F
100
AcDbSymbolTableRecord
100
AcDbBlockTableRecord
2
*MODEL_SPACE
0
BLOCK_RECORD
5
1B
100
AcDbSymbolTableRecord
100
AcDbBlockTableRecord
2
*PAPER_SPACE
0
ENDTAB
0
ENDSEC
0
SECTION
2
BLOCKS
0
BLOCK
5
20
100
AcDbEntity
100
AcDbBlockBegin
2
*MODEL_SPACE
0
ENDBLK
5
21
100
AcDbEntity
100
AcDbBlockEnd
0
BLOCK
5
1C
100
AcDbEntity
100
AcDbBlockBegin
2
*PAPER_SPACE
0
ENDBLK
5
1D
100
AcDbEntity
100
AcDbBlockEnd
0
ENDSEC
0
SECTION
2
ENTITIES
0
CIRCLE
5
100
100
AcDbEntity
8
0
100
AcDbCircle
10
4.1349999999999998
20
-32.745000000000005
30
0
40
1.6250000000000051
210
0
220
0
230
1
0
CIRCLE
5
101
100
AcDbEntity
8
0
100
AcDbCircle
10
57.664999999999935
20
-32.745000000000005
30
0
40
1.6249999999999982
210
0
220
-0
230
1
0
CIRCLE
5
102
100
AcDbEntity
8
0
100
AcDbCircle
10
4.1349999999999998
20
-4.1349999999999998
30
0
40
1.6250000000000042
210
0
220
-0
230
1
0
CIRCLE
5
103
100
AcDbEntity
8
0
100
AcDbCircle
10
57.664999999999935
20
-4.1349999999999998
30
0
40
1.6249999999999973
210
0
220
-0
230
1
0
LWPOLYLINE
5
104
100
AcDbEntity
8
0
100
AcDbPolyline
90
12
70
1
43
0.0
10
61.799999999999997
20
0
10
9.0000000000000036
20
0
10
4.5164973952554407e-15
20
0
10
9.7578188781308815e-16
20
-7.9678637831941854
10
2.0469737016526324e-15
20
-16.640000000000001
10
-0.19999999999999796
20
-16.640000000000001
10
-0.19999999999999796
20
-20.240000000000006
10
2.4786851214742439e-15
20
-20.240000000000006
10
3.5407155074423517e-15
20
-28.912136216805816
10
4.4408920985006262e-15
20
-36.88000000000001
10
9.0000000000000071
20
-36.88000000000001
10
61.800000000000004
20
-36.880000000000003
0
LWPOLYLINE
5
105
100
AcDbEntity
8
0
100
AcDbPolyline
90
4
70
1
43
0.0
10
55.665000000000006
20
-28.395000000000007
10
59.665000000000006
20
-28.395000000000007
10
59.665000000000006
20
-8.4849999999999994
10
55.665000000000006
20
-8.4849999999999923
0
CIRCLE
5
106
100
AcDbEntity
8
0
100
AcDbCircle
10
56.664999999999999
20
-9.2849999999999984
30
0
40
0.25000000000000022
210
0
220
0
230
1
0
CIRCLE
5
107
100
AcDbEntity
8
0
100
AcDbCircle
10
56.664999999999999
20
-11.284999999999998
30
0
40
0.25000000000000022
210
0
220
0
230
1
0
CIRCLE
5
108
100
AcDbEntity
8
0
100
AcDbCircle
10
56.664999999999999
20
-13.285
30
0
40
0.25000000000000022
210
0
220
0
230
1
0
CIRCLE
5
109
100
AcDbEntity
8
0
100
AcDbCircle
10
56.664999999999999
20
-15.284999999999997
30
0
40
0.25000000000000022
210
0
220
0
230
1
0
CIRCLE
5
110
100
AcDbEntity
8
0
100
AcDbCircle
10
56.664999999999999
20
-17.284999999999997
30
0
40
0.25000000000000022
210
0
220
0
230
1
0
CIRCLE
5
111
100
AcDbEntity
8
0
100
AcDbCircle
10
56.664999999999999
20
-19.284999999999997
30
0
40
0.25000000000000022
210
0
220
0
230
1
0
CIRCLE
5
112
100
AcDbEntity
8
0
100
AcDbCircle
10
56.664999999999999
20
-21.284999999999997
30
0
40
0.25000000000000022
210
0
220
0
230
1
0
CIRCLE
5
113
100
AcDbEntity
8
0
100
AcDbCircle
10
56.664999999999999
20
-23.284999999999997
30
0
40
0.25000000000000022
210
0
220
0
230
1
0
CIRCLE
5
114
100
AcDbEntity
8
0
100
AcDbCircle
10
56.664999999999999
20
-25.284999999999997
30
0
40
0.25000000000000022
210
0
220
0
230
1
0
CIRCLE
5
115
100
AcDbEntity
8
0
100
AcDbCircle
10
56.664999999999999
20
-27.284999999999997
30
0
40
0.25000000000000022
210
0
220
0
230
1
0
CIRCLE
5
116
100
AcDbEntity
8
0
100
AcDbCircle
10
58.665000000000006
20
-27.285
30
0
40
0.25000000000000022
210
0
220
0
230
1
0
CIRCLE
5
117
100
AcDbEntity
8
0
100
AcDbCircle
10
58.665000000000006
20
-25.284999999999997
30
0
40
0.25000000000000022
210
0
220
0
230
1
0
CIRCLE
5
118
100
AcDbEntity
8
0
100
AcDbCircle
10
58.665000000000006
20
-23.284999999999997
30
0
40
0.25000000000000022
210
0
220
0
230
1
0
CIRCLE
5
119
100
AcDbEntity
8
0
100
AcDbCircle
10
58.665000000000006
20
-21.284999999999997
30
0
40
0.25000000000000022
210
0
220
0
230
1
0
CIRCLE
5
120
100
AcDbEntity
8
0
100
AcDbCircle
10
58.665000000000006
20
-19.284999999999997
30
0
40
0.25000000000000022
210
0
220
0
230
1
0
CIRCLE
5
121
100
AcDbEntity
8
0
100
AcDbCircle
10
58.665000000000006
20
-17.284999999999997
30
0
40
0.25000000000000022
210
0
220
0
230
1
0
CIRCLE
5
122
100
AcDbEntity
8
0
100
AcDbCircle
10
58.665000000000006
20
-15.285
30
0
40
0.25000000000000022
210
0
220
0
230
1
0
CIRCLE
5
123
100
AcDbEntity
8
0
100
AcDbCircle
10
58.665000000000006
20
-13.285
30
0
40
0.25000000000000022
210
0
220
0
230
1
0
CIRCLE
5
124
100
AcDbEntity
8
0
100
AcDbCircle
10
58.665000000000006
20
-11.285
30
0
40
0.25000000000000022
210
0
220
0
230
1
0
CIRCLE
5
125
100
AcDbEntity
8
0
100
AcDbCircle
10
58.665000000000006
20
-9.2850000000000001
30
0
40
0.25000000000000022
210
0
220
0
230
1
0
CIRCLE
5
126
100
AcDbEntity
8
0
100
AcDbCircle
10
58.665000000000006
20
-27.285
30
0
40
0.25000000000000022
210
0
220
0
230
1
0
CIRCLE
5
127
100
AcDbEntity
8
0
100
AcDbCircle
10
56.664999999999999
20
-27.284999999999997
30
0
40
0.25000000000000022
210
0
220
0
230
1
0
CIRCLE
5
128
100
AcDbEntity
8
0
100
AcDbCircle
10
56.664999999999999
20
-25.284999999999997
30
0
40
0.25000000000000022
210
0
220
0
230
1
0
CIRCLE
5
129
100
AcDbEntity
8
0
100
AcDbCircle
10
58.665000000000006
20
-25.284999999999997
30
0
40
0.25000000000000022
210
0
220
0
230
1
0
CIRCLE
5
130
100
AcDbEntity
8
0
100
AcDbCircle
10
58.665000000000006
20
-23.284999999999997
30
0
40
0.25000000000000022
210
0
220
0
230
1
0
CIRCLE
5
131
100
AcDbEntity
8
0
100
AcDbCircle
10
56.664999999999999
20
-23.284999999999997
30
0
40
0.25000000000000022
210
0
220
0
230
1
0
CIRCLE
5
132
100
AcDbEntity
8
0
100
AcDbCircle
10
56.664999999999999
20
-21.284999999999997
30
0
40
0.25000000000000022
210
0
220
0
230
1
0
CIRCLE
5
133
100
AcDbEntity
8
0
100
AcDbCircle
10
58.665000000000006
20
-21.284999999999997
30
0
40
0.25000000000000022
210
0
220
0
230
1
0
CIRCLE
5
134
100
AcDbEntity
8
0
100
AcDbCircle
10
58.665000000000006
20
-19.284999999999997
30
0
40
0.25000000000000022
210
0
220
0
230
1
0
CIRCLE
5
135
100
AcDbEntity
8
0
100
AcDbCircle
10
56.664999999999999
20
-19.284999999999997
30
0
40
0.25000000000000022
210
0
220
0
230
1
0
CIRCLE
5
136
100
AcDbEntity
8
0
100
AcDbCircle
10
56.664999999999999
20
-17.284999999999997
30
0
40
0.25000000000000022
210
0
220
0
230
1
0
CIRCLE
5
137
100
AcDbEntity
8
0
100
AcDbCircle
10
58.665000000000006
20
-17.284999999999997
30
0
40
0.25000000000000022
210
0
220
0
230
1
0
CIRCLE
5
138
100
AcDbEntity
8
0
100
AcDbCircle
10
56.664999999999999
20
-15.284999999999997
30
0
40
0.25000000000000022
210
0
220
0
230
1
0
CIRCLE
5
139
100
AcDbEntity
8
0
100
AcDbCircle
10
58.665000000000006
20
-15.285
30
0
40
0.25000000000000022
210
0
220
0
230
1
0
CIRCLE
5
140
100
AcDbEntity
8
0
100
AcDbCircle
10
58.665000000000006
20
-13.285
30
0
40
0.25000000000000022
210
0
220
0
230
1
0
CIRCLE
5
141
100
AcDbEntity
8
0
100
AcDbCircle
10
56.664999999999999
20
-13.285
30
0
40
0.25000000000000022
210
0
220
0
230
1
0
CIRCLE
5
142
100
AcDbEntity
8
0
100
AcDbCircle
10
56.664999999999999
20
-11.284999999999998
30
0
40
0.25000000000000022
210
0
220
0
230
1
0
CIRCLE
5
143
100
AcDbEntity
8
0
100
AcDbCircle
10
58.665000000000006
20
-11.285
30
0
40
0.25000000000000022
210
0
220
0
230
1
0
CIRCLE
5
144
100
AcDbEntity
8
0
100
AcDbCircle
10
58.665000000000006
20
-9.2850000000000001
30
0
40
0.25000000000000022
210
0
220
0
230
1
0
CIRCLE
5
145
100
AcDbEntity
8
0
100
AcDbCircle
10
56.664999999999999
20
-9.2849999999999984
30
0
40
0.25000000000000022
210
0
220
0
230
1
0
ENDSEC
0
SECTION
2
OBJECTS
0
DICTIONARY
5
C
100
AcDbDictionary
3
ACAD_GROUP
350
D
3
ACAD_MLINESTYLE
350
17
0
DICTIONARY
5
D
100
AcDbDictionary
0
DICTIONARY
5
1A
330
C
100
AcDbDictionary
0
DICTIONARY
5
17
100
AcDbDictionary
0
ENDSEC
0
EOF
