0
SECTION
2
HEADER
9
$INSUNITS
70
4
9
$ACADVER
1
AC1014
9
$HANDSEED
5
FFFF
0
ENDSEC
0
SECTION
2
TABLES
0
TABLE
2
VPORT
5
8
100
AcDbSymbolTable
0
ENDTAB
0
TABLE
2
LTYPE
5
5
100
AcDbSymbolTable
0
LTYPE
5
14
100
AcDbSymbolTableRecord
100
AcDbLinetypeTableRecord
2
BYBLOCK
70
0
0
LTYPE
5
15
100
AcDbSymbolTableRecord
100
AcDbLinetypeTableRecord
2
BYLAYER
70
0
0
ENDTAB
0
TABLE
2
LAYER
5
2
100
AcDbSymbolTable
70
2
0
LAYER
5
50
100
AcDbSymbolTableRecord
100
AcDbLayerTableRecord
2
0
70
0
6
CONTINUOUS
0
ENDTAB
0
TABLE
2
STYLE
5
3
100
AcDbSymbolTable
70
1
0
STYLE
5
11
100
AcDbSymbolTableRecord
100
AcDbTextStyleTableRecord
2
STANDARD
70
0
0
ENDTAB
0
TABLE
2
VIEW
5
6
100
AcDbSymbolTable
70
0
0
ENDTAB
0
TABLE
2
UCS
5
7
100
AcDbSymbolTable
70
0
0
ENDTAB
0
TABLE
2
APPID
5
9
100
AcDbSymbolTable
70
2
0
APPID
5
12
100
AcDbSymbolTableRecord
100
AcDbRegAppTableRecord
2
ACAD
70
0
0
ENDTAB
0
TABLE
2
DIMSTYLE
5
A
100
AcDbSymbolTable
70
1
0
ENDTAB
0
TABLE
2
BLOCK_RECORD
5
1
100
AcDbSymbolTable
70
1
0
BLOCK_RECORD
5
1F
100
AcDbSymbolTableRecord
100
AcDbBlockTableRecord
2
*MODEL_SPACE
0
BLOCK_RECORD
5
1B
100
AcDbSymbolTableRecord
100
AcDbBlockTableRecord
2
*PAPER_SPACE
0
ENDTAB
0
ENDSEC
0
SECTION
2
BLOCKS
0
BLOCK
5
20
100
AcDbEntity
100
AcDbBlockBegin
2
*MODEL_SPACE
0
ENDBLK
5
21
100
AcDbEntity
100
AcDbBlockEnd
0
BLOCK
5
1C
100
AcDbEntity
100
AcDbBlockBegin
2
*PAPER_SPACE
0
ENDBLK
5
1D
100
AcDbEntity
100
AcDbBlockEnd
0
ENDSEC
0
SECTION
2
ENTITIES
0
LWPOLYLINE
5
100
100
AcDbEntity
8
0
100
AcDbPolyline
90
4
70
1
43
0.0
10
-60.914197880880003
20
0
10
-63.418702321169619
20
0
10
-63.418702321169619
20
1.5700000000000001
10
-60.914197880880003
20
1.5700000000000001
0
LWPOLYLINE
5
101
100
AcDbEntity
8
0
100
AcDbPolyline
90
32
70
1
43
0.0
10
-28.625861120312553
20
1.5239019385875232
10
-28.671959181725029
20
1.5700000000000001
10
-29.087763058900077
20
1.5700000000000001
10
-29.133861120312552
20
1.5239019385875241
10
-31.165861120312552
20
1.5239019385875281
10
-31.211959181725028
20
1.5700000000000001
10
-31.627763058900079
20
1.5700000000000001
10
-31.673861120312555
20
1.5239019385875288
10
-33.705861120312555
20
1.5239019385875328
10
-33.75195918172502
20
1.5700000000000001
10
-34.167763058900086
20
1.5700000000000001
10
-34.213861120312558
20
1.5239019385875334
10
-36.245861120312554
20
1.5239019385875374
10
-36.291959181725019
20
1.5700000000000001
10
-36.707763058900092
20
1.5700000000000001
10
-36.753861120312557
20
1.5239019385875383
10
-38.785861120312561
20
1.5239019385875421
10
-38.831959181725011
20
1.5700000000000001
10
-39.247763058900091
20
1.5700000000000001
10
-39.293861120312556
20
1.523901938587543
10
-41.325861120312553
20
1.5239019385875467
10
-41.371959181725003
20
1.5700000000000001
10
-41.787763058900111
20
1.5700000000000001
10
-41.833861120312562
20
1.5239019385875481
10
-43.865861120312559
20
1.5239019385875516
10
-43.911959181725003
20
1.5700000000000001
10
-60.914197880880003
20
1.5700000000000001
10
-60.914197880880003
20
0
10
-16.733499999999992
20
0
10
-16.733499999999992
20
1.5700000000000001
10
-26.54776305890007
20
1.5700000000000001
10
-26.593861120312553
20
1.5239019385875194
0
LWPOLYLINE
5
102
100
AcDbEntity
8
0
100
AcDbPolyline
90
4
70
1
43
0.0
10
-14.228999999999994
20
0
10
-16.733499999999992
20
0
10
-16.733499999999992
20
1.5700000000000001
10
-14.228999999999994
20
1.5700000000000001
0
LWPOLYLINE
5
103
100
AcDbEntity
8
0
100
AcDbPolyline
90
4
70
1
43
0.0
10
-13.228999999999996
20
0
10
-14.228999999999994
20
0
10
-14.228999999999994
20
1.5700000000000001
10
-13.228999999999996
20
1.5700000000000001
0
LWPOLYLINE
5
104
100
AcDbEntity
8
0
100
AcDbPolyline
90
4
70
1
43
0.0
10
-13.228999999999996
20
0
10
-1.4999999999999969
20
0
10
-1.4999999999999991
20
1.5700000000000001
10
-13.228999999999996
20
1.5700000000000001
0
LWPOLYLINE
5
105
100
AcDbEntity
8
0
100
AcDbPolyline
90
4
70
1
43
0.0
10
5.5511151231257827e-16
20
0
10
-1.4999999999999969
20
0
10
-1.4999999999999969
20
1.5700000000000001
10
0
20
1.5700000000000001
0
LINE
5
106
100
AcDbEntity
8
0
100
AcDbLine
10
-20.152698076671413
20
3.0332858708078425
30
0
11
-20.472698076671406
21
3.0332858708078425
31
0
0
LWPOLYLINE
5
107
100
AcDbEntity
8
0
100
AcDbPolyline
90
4
70
1
43
0.0
10
-20.472698076671406
20
3.0332858708078425
10
-20.472698076671414
20
2.7132858708078427
10
-20.152698076671413
20
2.7132858708078427
10
-20.152698076671413
20
3.0332858708078425
0
LWPOLYLINE
5
108
100
AcDbEntity
8
0
100
AcDbPolyline
90
4
70
1
43
0.0
10
-23.012698076671406
20
3.0332858708078447
10
-23.012698076671406
20
2.7132858708078449
10
-22.692698076671412
20
2.7132858708078444
10
-22.692698076671405
20
3.0332858708078447
0
LWPOLYLINE
5
109
100
AcDbEntity
8
0
100
AcDbPolyline
90
4
70
1
43
0.0
10
-22.692698076671405
20
3.0332858708078447
10
-22.532698076671412
20
3.1932858708078449
10
-23.172698076671409
20
3.1932858708078453
10
-23.012698076671406
20
3.0332858708078447
0
LWPOLYLINE
5
110
100
AcDbEntity
8
0
100
AcDbPolyline
90
4
70
1
43
0.0
10
-23.012698076671406
20
3.0332858708078447
10
-23.172698076671409
20
3.1932858708078453
10
-23.172698076671409
20
2.5532858708078452
10
-23.012698076671406
20
2.7132858708078449
0
LWPOLYLINE
5
111
100
AcDbEntity
8
0
100
AcDbPolyline
90
4
70
1
43
0.0
10
-22.532698076671412
20
2.5532858708078443
10
-22.692698076671412
20
2.7132858708078444
10
-23.012698076671406
20
2.7132858708078449
10
-23.172698076671409
20
2.5532858708078452
0
LWPOLYLINE
5
112
100
AcDbEntity
8
0
100
AcDbPolyline
90
4
70
1
43
0.0
10
-22.532698076671412
20
3.1932858708078449
10
-22.692698076671405
20
3.0332858708078447
10
-22.692698076671412
20
2.7132858708078444
10
-22.532698076671412
20
2.5532858708078443
0
LWPOLYLINE
5
113
100
AcDbEntity
8
0
100
AcDbPolyline
90
4
70
1
43
0.0
10
-20.472698076671406
20
3.0332858708078425
10
-20.632698076671407
20
3.1932858708078431
10
-20.63269807667141
20
2.5532858708078434
10
-20.472698076671414
20
2.7132858708078427
0
LWPOLYLINE
5
114
100
AcDbEntity
8
0
100
AcDbPolyline
90
4
70
1
43
0.0
10
-20.152698076671413
20
3.0332858708078425
10
-19.99269807667141
20
3.1932858708078427
10
-20.632698076671407
20
3.1932858708078431
10
-20.472698076671406
20
3.0332858708078425
0
LWPOLYLINE
5
115
100
AcDbEntity
8
0
100
AcDbPolyline
90
4
70
1
43
0.0
10
-19.99269807667141
20
3.1932858708078427
10
-20.152698076671413
20
3.0332858708078425
10
-20.152698076671413
20
2.7132858708078427
10
-19.99269807667141
20
2.5532858708078425
0
LWPOLYLINE
5
116
100
AcDbEntity
8
0
100
AcDbPolyline
90
4
70
1
43
0.0
10
-19.99269807667141
20
2.5532858708078425
10
-20.152698076671413
20
2.7132858708078427
10
-20.472698076671414
20
2.7132858708078427
10
-20.63269807667141
20
2.5532858708078434
0
LWPOLYLINE
5
117
100
AcDbEntity
8
0
100
AcDbPolyline
90
4
70
1
43
0.0
10
-27.769861120312548
20
2.9539019385875367
10
-27.769861120312548
20
2.6339019385875373
10
-27.449861120312548
20
2.6339019385875364
10
-27.449861120312548
20
2.9539019385875367
0
LWPOLYLINE
5
118
100
AcDbEntity
8
0
100
AcDbPolyline
90
4
70
1
43
0.0
10
-27.449861120312548
20
2.9539019385875367
10
-27.289861120312548
20
3.1139019385875359
10
-27.929861120312548
20
3.1139019385875373
10
-27.769861120312548
20
2.9539019385875367
0
LWPOLYLINE
5
119
100
AcDbEntity
8
0
100
AcDbPolyline
90
4
70
1
43
0.0
10
-27.289861120312548
20
3.1139019385875359
10
-27.449861120312548
20
2.9539019385875367
10
-27.449861120312548
20
2.6339019385875364
10
-27.289861120312548
20
2.4739019385875358
0
LWPOLYLINE
5
120
100
AcDbEntity
8
0
100
AcDbPolyline
90
4
70
1
43
0.0
10
-27.289861120312548
20
2.4739019385875358
10
-27.449861120312548
20
2.6339019385875364
10
-27.769861120312548
20
2.6339019385875373
10
-27.929861120312548
20
2.4739019385875372
0
LWPOLYLINE
5
121
100
AcDbEntity
8
0
100
AcDbPolyline
90
4
70
1
43
0.0
10
-27.769861120312548
20
2.9539019385875367
10
-27.929861120312548
20
3.1139019385875373
10
-27.929861120312548
20
2.4739019385875372
10
-27.769861120312548
20
2.6339019385875373
0
LWPOLYLINE
5
122
100
AcDbEntity
8
0
100
AcDbPolyline
90
4
70
1
43
0.0
10
-29.989861120312547
20
2.9539019385875411
10
-29.82986112031255
20
3.1139019385875413
10
-30.469861120312551
20
3.1139019385875422
10
-30.309861120312547
20
2.9539019385875416
0
LWPOLYLINE
5
123
100
AcDbEntity
8
0
100
AcDbPolyline
90
4
70
1
43
0.0
10
-29.82986112031255
20
3.1139019385875413
10
-29.989861120312547
20
2.9539019385875411
10
-29.989861120312547
20
2.6339019385875413
10
-29.82986112031255
20
2.4739019385875407
0
LWPOLYLINE
5
124
100
AcDbEntity
8
0
100
AcDbPolyline
90
4
70
1
43
0.0
10
-29.82986112031255
20
2.4739019385875407
10
-29.989861120312547
20
2.6339019385875413
10
-30.309861120312547
20
2.6339019385875417
10
-30.469861120312551
20
2.4739019385875416
0
LWPOLYLINE
5
125
100
AcDbEntity
8
0
100
AcDbPolyline
90
4
70
1
43
0.0
10
-30.309861120312547
20
2.9539019385875416
10
-30.309861120312547
20
2.6339019385875417
10
-29.989861120312547
20
2.6339019385875413
10
-29.989861120312547
20
2.9539019385875411
0
LWPOLYLINE
5
126
100
AcDbEntity
8
0
100
AcDbPolyline
90
4
70
1
43
0.0
10
-30.309861120312547
20
2.9539019385875416
10
-30.469861120312551
20
3.1139019385875422
10
-30.469861120312551
20
2.4739019385875416
10
-30.309861120312547
20
2.6339019385875417
0
LWPOLYLINE
5
127
100
AcDbEntity
8
0
100
AcDbPolyline
90
4
70
1
43
0.0
10
-32.849861120312546
20
2.9539019385875465
10
-32.849861120312546
20
2.6339019385875466
10
-32.529861120312546
20
2.6339019385875462
10
-32.529861120312546
20
2.9539019385875456
0
LWPOLYLINE
5
128
100
AcDbEntity
8
0
100
AcDbPolyline
90
4
70
1
43
0.0
10
-32.369861120312549
20
2.4739019385875456
10
-32.529861120312546
20
2.6339019385875462
10
-32.849861120312546
20
2.6339019385875466
10
-33.00986112031255
20
2.4739019385875465
0
LWPOLYLINE
5
129
100
AcDbEntity
8
0
100
AcDbPolyline
90
4
70
1
43
0.0
10
-32.369861120312549
20
3.1139019385875457
10
-32.529861120312546
20
2.9539019385875456
10
-32.529861120312546
20
2.6339019385875462
10
-32.369861120312549
20
2.4739019385875456
0
LWPOLYLINE
5
130
100
AcDbEntity
8
0
100
AcDbPolyline
90
4
70
1
43
0.0
10
-32.529861120312546
20
2.9539019385875456
10
-32.369861120312549
20
3.1139019385875457
10
-33.00986112031255
20
3.1139019385875466
10
-32.849861120312546
20
2.9539019385875465
0
LWPOLYLINE
5
131
100
AcDbEntity
8
0
100
AcDbPolyline
90
4
70
1
43
0.0
10
-32.849861120312546
20
2.9539019385875465
10
-33.00986112031255
20
3.1139019385875466
10
-33.00986112031255
20
2.4739019385875465
10
-32.849861120312546
20
2.6339019385875466
0
LWPOLYLINE
5
132
100
AcDbEntity
8
0
100
AcDbPolyline
90
4
70
1
43
0.0
10
-34.909861120312549
20
3.1139019385875502
10
-35.069861120312552
20
2.9539019385875509
10
-35.069861120312552
20
2.6339019385875506
10
-34.909861120312549
20
2.47390193858755
0
LWPOLYLINE
5
133
100
AcDbEntity
8
0
100
AcDbPolyline
90
4
70
1
43
0.0
10
-35.389861120312545
20
2.9539019385875509
10
-35.389861120312545
20
2.6339019385875515
10
-35.069861120312552
20
2.6339019385875506
10
-35.069861120312552
20
2.9539019385875509
0
LWPOLYLINE
5
134
100
AcDbEntity
8
0
100
AcDbPolyline
90
4
70
1
43
0.0
10
-34.909861120312549
20
2.47390193858755
10
-35.069861120312552
20
2.6339019385875506
10
-35.389861120312545
20
2.6339019385875515
10
-35.549861120312549
20
2.4739019385875509
0
LWPOLYLINE
5
135
100
AcDbEntity
8
0
100
AcDbPolyline
90
4
70
1
43
0.0
10
-35.389861120312545
20
2.9539019385875509
10
-35.549861120312549
20
3.1139019385875515
10
-35.549861120312549
20
2.4739019385875509
10
-35.389861120312545
20
2.6339019385875515
0
LINE
5
136
100
AcDbEntity
8
0
100
AcDbLine
10
-35.069861120312552
20
2.9539019385875509
30
0
11
-35.389861120312545
21
2.9539019385875509
31
0
0
LWPOLYLINE
5
137
100
AcDbEntity
8
0
100
AcDbPolyline
90
4
70
1
43
0.0
10
-35.069861120312552
20
2.9539019385875509
10
-34.909861120312549
20
3.1139019385875502
10
-35.549861120312549
20
3.1139019385875515
10
-35.389861120312545
20
2.9539019385875509
0
LWPOLYLINE
5
138
100
AcDbEntity
8
0
100
AcDbPolyline
90
4
70
1
43
0.0
10
-37.449861120312548
20
2.4739019385875549
10
-37.609861120312551
20
2.6339019385875555
10
-37.929861120312552
20
2.6339019385875559
10
-38.089861120312548
20
2.4739019385875558
0
LWPOLYLINE
5
139
100
AcDbEntity
8
0
100
AcDbPolyline
90
4
70
1
43
0.0
10
-37.929861120312552
20
2.9539019385875558
10
-37.929861120312552
20
2.6339019385875559
10
-37.609861120312551
20
2.6339019385875555
10
-37.609861120312551
20
2.9539019385875553
0
LWPOLYLINE
5
140
100
AcDbEntity
8
0
100
AcDbPolyline
90
4
70
1
43
0.0
10
-37.609861120312551
20
2.9539019385875553
10
-37.449861120312548
20
3.1139019385875555
10
-38.089861120312548
20
3.1139019385875564
10
-37.929861120312552
20
2.9539019385875558
0
LWPOLYLINE
5
141
100
AcDbEntity
8
0
100
AcDbPolyline
90
4
70
1
43
0.0
10
-37.929861120312552
20
2.9539019385875558
10
-38.089861120312548
20
3.1139019385875564
10
-38.089861120312548
20
2.4739019385875558
10
-37.929861120312552
20
2.6339019385875559
0
LWPOLYLINE
5
142
100
AcDbEntity
8
0
100
AcDbPolyline
90
4
70
1
43
0.0
10
-37.449861120312548
20
3.1139019385875555
10
-37.609861120312551
20
2.9539019385875553
10
-37.609861120312551
20
2.6339019385875555
10
-37.449861120312548
20
2.4739019385875549
0
LWPOLYLINE
5
143
100
AcDbEntity
8
0
100
AcDbPolyline
90
4
70
1
43
0.0
10
-40.149861120312551
20
2.9539019385875598
10
-39.989861120312547
20
3.1139019385875599
10
-40.629861120312547
20
3.1139019385875608
10
-40.469861120312551
20
2.9539019385875607
0
LWPOLYLINE
5
144
100
AcDbEntity
8
0
100
AcDbPolyline
90
4
70
1
43
0.0
10
-40.469861120312551
20
2.9539019385875607
10
-40.469861120312551
20
2.6339019385875604
10
-40.149861120312551
20
2.6339019385875604
10
-40.149861120312551
20
2.9539019385875598
0
LWPOLYLINE
5
145
100
AcDbEntity
8
0
100
AcDbPolyline
90
4
70
1
43
0.0
10
-39.989861120312547
20
2.4739019385875594
10
-40.149861120312551
20
2.6339019385875604
10
-40.469861120312551
20
2.6339019385875604
10
-40.629861120312547
20
2.4739019385875607
0
LWPOLYLINE
5
146
100
AcDbEntity
8
0
100
AcDbPolyline
90
4
70
1
43
0.0
10
-39.989861120312547
20
3.1139019385875599
10
-40.149861120312551
20
2.9539019385875598
10
-40.149861120312551
20
2.6339019385875604
10
-39.989861120312547
20
2.4739019385875594
0
LWPOLYLINE
5
147
100
AcDbEntity
8
0
100
AcDbPolyline
90
4
70
1
43
0.0
10
-40.469861120312551
20
2.9539019385875607
10
-40.629861120312547
20
3.1139019385875608
10
-40.629861120312547
20
2.4739019385875607
10
-40.469861120312551
20
2.6339019385875604
0
LWPOLYLINE
5
148
100
AcDbEntity
8
0
100
AcDbPolyline
90
4
70
1
43
0.0
10
-42.529861120312553
20
3.1139019385875644
10
-42.689861120312557
20
2.9539019385875647
10
-42.689861120312557
20
2.6339019385875648
10
-42.529861120312553
20
2.4739019385875642
0
LWPOLYLINE
5
149
100
AcDbEntity
8
0
100
AcDbPolyline
90
4
70
1
43
0.0
10
-42.689861120312557
20
2.9539019385875647
10
-42.529861120312553
20
3.1139019385875644
10
-43.169861120312554
20
3.1139019385875653
10
-43.00986112031255
20
2.9539019385875651
0
LWPOLYLINE
5
150
100
AcDbEntity
8
0
100
AcDbPolyline
90
4
70
1
43
0.0
10
-43.00986112031255
20
2.9539019385875651
10
-43.00986112031255
20
2.6339019385875657
10
-42.689861120312557
20
2.6339019385875648
10
-42.689861120312557
20
2.9539019385875647
0
LWPOLYLINE
5
151
100
AcDbEntity
8
0
100
AcDbPolyline
90
4
70
1
43
0.0
10
-42.529861120312553
20
2.4739019385875642
10
-42.689861120312557
20
2.6339019385875648
10
-43.00986112031255
20
2.6339019385875657
10
-43.169861120312554
20
2.4739019385875656
0
LWPOLYLINE
5
152
100
AcDbEntity
8
0
100
AcDbPolyline
90
4
70
1
43
0.0
10
-43.00986112031255
20
2.9539019385875651
10
-43.169861120312554
20
3.1139019385875653
10
-43.169861120312554
20
2.4739019385875656
10
-43.00986112031255
20
2.6339019385875657
0
LWPOLYLINE
5
153
100
AcDbEntity
8
0
100
AcDbPolyline
90
44
70
1
43
0.0
10
-26.593861120312553
20
1.523901938587523
10
-26.339861120312552
20
1.7779019385875225
10
-26.339861120312548
20
3.8099019385875228
10
-26.59386112031255
20
4.0639019385875228
10
-28.62586112031255
20
4.0639019385875272
10
-28.879861120312547
20
3.8099019385875277
10
-29.133861120312549
20
4.0639019385875272
10
-31.165861120312549
20
4.0639019385875317
10
-31.419861120312547
20
3.8099019385875321
10
-31.673861120312552
20
4.0639019385875326
10
-33.705861120312548
20
4.0639019385875361
10
-33.959861120312546
20
3.809901938587537
10
-34.213861120312551
20
4.0639019385875379
10
-36.245861120312547
20
4.0639019385875406
10
-36.499861120312545
20
3.8099019385875419
10
-36.75386112031255
20
4.0639019385875415
10
-38.785861120312546
20
4.0639019385875459
10
-39.039861120312551
20
3.8099019385875463
10
-39.293861120312542
20
4.0639019385875468
10
-41.325861120312553
20
4.0639019385875503
10
-41.579861120312543
20
3.8099019385875508
10
-41.833861120312548
20
4.0639019385875512
10
-43.865861120312545
20
4.0639019385875557
10
-44.119861120312549
20
3.8099019385875561
10
-44.119861120312564
20
1.7779019385875559
10
-43.865861120312559
20
1.5239019385875552
10
-41.833861120312562
20
1.5239019385875516
10
-41.579861120312557
20
1.7779019385875512
10
-41.325861120312553
20
1.5239019385875505
10
-39.293861120312556
20
1.5239019385875465
10
-39.039861120312551
20
1.7779019385875463
10
-38.785861120312561
20
1.5239019385875459
10
-36.753861120312557
20
1.5239019385875419
10
-36.499861120312559
20
1.7779019385875416
10
-36.245861120312554
20
1.523901938587541
10
-34.213861120312558
20
1.5239019385875372
10
-33.959861120312553
20
1.7779019385875365
10
-33.705861120312555
20
1.5239019385875363
10
-31.673861120312555
20
1.5239019385875325
10
-31.41986112031255
20
1.7779019385875319
10
-31.165861120312552
20
1.5239019385875316
10
-29.133861120312552
20
1.5239019385875276
10
-28.879861120312551
20
1.7779019385875272
10
-28.625861120312553
20
1.5239019385875268
0
LWPOLYLINE
5
154
100
AcDbEntity
8
0
100
AcDbPolyline
90
4
70
1
43
0.0
10
-39.989861120312554
20
2.4739019385875478
10
-40.629861120312547
20
2.4739019385875496
10
-40.629861120312547
20
3.1139019385875502
10
-39.989861120312554
20
3.1139019385875484
0
LWPOLYLINE
5
155
100
AcDbEntity
8
0
100
AcDbPolyline
90
4
70
1
43
0.0
10
-37.449861120312548
20
3.1139019385875431
10
-37.449861120312548
20
2.4739019385875434
10
-38.089861120312555
20
2.4739019385875443
10
-38.089861120312555
20
3.1139019385875444
0
LWPOLYLINE
5
156
100
AcDbEntity
8
0
100
AcDbPolyline
90
4
70
1
43
0.0
10
-35.549861120312549
20
3.1139019385875399
10
-34.909861120312549
20
3.1139019385875386
10
-34.909861120312549
20
2.4739019385875385
10
-35.549861120312549
20
2.4739019385875398
0
LWPOLYLINE
5
157
100
AcDbEntity
8
0
100
AcDbPolyline
90
4
70
1
43
0.0
10
-27.289861120312548
20
3.1139019385875244
10
-27.289861120312551
20
2.4739019385875243
10
-27.929861120312548
20
2.4739019385875256
10
-27.929861120312548
20
3.1139019385875253
0
LWPOLYLINE
5
158
100
AcDbEntity
8
0
100
AcDbPolyline
90
4
70
1
43
0.0
10
-33.00986112031255
20
3.1139019385875355
10
-32.369861120312549
20
3.1139019385875342
10
-32.369861120312549
20
2.4739019385875336
10
-33.00986112031255
20
2.4739019385875349
0
LWPOLYLINE
5
159
100
AcDbEntity
8
0
100
AcDbPolyline
90
4
70
1
43
0.0
10
-29.82986112031255
20
3.1139019385875293
10
-29.829861120312554
20
2.4739019385875287
10
-30.469861120312551
20
2.47390193858753
10
-30.469861120312551
20
3.1139019385875306
0
LWPOLYLINE
5
160
100
AcDbEntity
8
0
100
AcDbPolyline
90
4
70
1
43
0.0
10
-43.169861120312554
20
3.1139019385875546
10
-42.529861120312553
20
3.1139019385875533
10
-42.529861120312553
20
2.4739019385875527
10
-43.169861120312554
20
2.473901938587554
0
LWPOLYLINE
5
161
100
AcDbEntity
8
0
100
AcDbPolyline
90
14
70
1
43
0.0
10
-19.296698076671419
20
1.6032858708078486
10
-19.042698076671417
20
1.8572858708078481
10
-19.042698076671414
20
3.8892858708078482
10
-19.296698076671415
20
4.1432858708078477
10
-21.328698076671415
20
4.1432858708078504
10
-21.582698076671413
20
3.8892858708078504
10
-21.836698076671411
20
4.1432858708078504
10
-23.868698076671414
20
4.1432858708078522
10
-24.122698076671412
20
3.8892858708078526
10
-24.122698076671419
20
1.8572858708078523
10
-23.868698076671414
20
1.6032858708078523
10
-21.836698076671418
20
1.6032858708078503
10
-21.58269807667142
20
1.8572858708078503
10
-21.328698076671415
20
1.6032858708078501
0
LWPOLYLINE
5
162
100
AcDbEntity
8
0
100
AcDbPolyline
90
4
70
1
43
0.0
10
-19.992698076671417
20
2.5532858708078487
10
-20.632698076671417
20
2.5532858708078496
10
-20.632698076671417
20
3.1932858708078498
10
-19.992698076671417
20
3.1932858708078493
0
LWPOLYLINE
5
163
100
AcDbEntity
8
0
100
AcDbPolyline
90
4
70
1
43
0.0
10
-22.532698076671416
20
2.553285870807851
10
-23.172698076671416
20
2.5532858708078514
10
-23.172698076671416
20
3.1932858708078515
10
-22.532698076671416
20
3.1932858708078515
0
ENDSEC
0
SECTION
2
OBJECTS
0
DICTIONARY
5
C
100
AcDbDictionary
3
ACAD_GROUP
350
D
3
ACAD_MLINESTYLE
350
17
0
DICTIONARY
5
D
100
AcDbDictionary
0
DICTIONARY
5
1A
330
C
100
AcDbDictionary
0
DICTIONARY
5
17
100
AcDbDictionary
0
ENDSEC
0
EOF
